<?xml version="1.0" standalone="no"?><!DOCTYPE svg PUBLIC "-//W3C//DTD SVG 1.1//EN" "http://www.w3.org/Graphics/SVG/1.1/DTD/svg11.dtd"><svg t="1621493407227" class="icon" viewBox="0 0 1085 1024" version="1.1" xmlns="http://www.w3.org/2000/svg" p-id="2357" width="67.8125" height="64" xmlns:xlink="http://www.w3.org/1999/xlink"><defs><style type="text/css"></style></defs><path d="M1070.512043 364.912942 569.536071 13.167149c-3.55054-3.556006-8.879084-7.108368-12.436911-8.884549-14.209449-8.880905-35.525443-3.552362-46.184352 12.436911L13.489376 366.690945c-15.989273 10.658908-17.759989 33.752906-5.330365 51.520182 12.436911 17.767276 35.530909 23.095819 49.742179 12.431446l33.752906-24.868357 0 577.364511c0 21.317816 17.767276 39.083271 39.083271 39.083271 21.317816 0 39.083271-17.765454 39.083271-39.083271L169.820637 350.701671 542.889711 89.555688l376.619615 264.698346 0 627.10669c0 21.315995 17.765454 39.083271 39.083271 39.083271 21.315995 0 39.083271-17.767276 39.083271-39.083271L997.675867 411.102758l26.64636 17.767276c15.989273 10.657086 37.310733 5.330365 49.742179-12.436911C1086.501316 398.665847 1084.723314 375.570028 1070.512043 364.912942L1070.512043 364.912942 1070.512043 364.912942 1070.512043 364.912942zM361.690093 897.863817l-63.957093 0c-24.868357 0-30.198722 5.330365-30.198722 30.202365l0 65.731452c0 24.873822 5.330365 30.204187 30.198722 30.204187l63.957093 0c24.868357 0 30.1969-5.330365 30.1969-30.204187l0-65.731452C390.107169 903.194182 384.778625 897.863817 361.690093 897.863817L361.690093 897.863817 361.690093 897.863817 361.690093 897.863817zM361.690093 682.90765l-63.957093 0c-24.868357 0-30.198722 5.330365-30.198722 30.204187l0 63.951628c0 24.873822 5.330365 30.202365 30.198722 30.202365l63.957093 0c24.868357 0 30.1969-5.328543 30.1969-30.202365L391.886993 711.332013C390.107169 688.238015 384.778625 682.90765 361.690093 682.90765L361.690093 682.90765 361.690093 682.90765 361.690093 682.90765zM574.866436 897.863817l-63.951628 0c-24.873822 0-30.204187 5.330365-30.204187 30.202365l0 65.731452c0 24.873822 5.330365 30.204187 30.204187 30.204187l63.951628 0c24.873822 0 30.204187-5.330365 30.204187-30.204187l0-65.731452C603.290798 903.194182 597.962255 897.863817 574.866436 897.863817L574.866436 897.863817 574.866436 897.863817 574.866436 897.863817zM788.050065 897.863817l-63.957093 0c-24.868357 0-30.198722 5.330365-30.198722 30.202365l0 65.731452c0 24.873822 5.330365 30.204187 30.198722 30.204187l63.957093 0c24.868357 0 30.198722-5.330365 30.198722-30.204187l0-65.731452C816.472606 903.194182 811.144062 897.863817 788.050065 897.863817L788.050065 897.863817 788.050065 897.863817 788.050065 897.863817zM574.866436 682.90765l-63.951628 0c-24.873822 0-30.204187 5.330365-30.204187 30.204187l0 63.951628c0 24.873822 5.330365 30.202365 30.204187 30.202365l63.951628 0c24.873822 0 30.204187-5.328543 30.204187-30.202365L605.070623 711.332013C603.290798 688.238015 597.962255 682.90765 574.866436 682.90765L574.866436 682.90765 574.866436 682.90765 574.866436 682.90765zM361.690093 467.951483l-63.957093 0c-24.868357 0-30.198722 5.330365-30.198722 30.198722l0 65.72963c0 24.873822 5.330365 30.204187 30.198722 30.204187l63.957093 0c24.868357 0 30.1969-5.330365 30.1969-30.204187l0-65.72963C390.107169 471.503846 384.778625 467.951483 361.690093 467.951483L361.690093 467.951483 361.690093 467.951483 361.690093 467.951483zM361.690093 467.951483" p-id="2358" fill="#2c2c2c"></path></svg>